# xmcd
#
# Track frame offsets: 
#        150
#        5793
#        26332
#        47150
#        72370
#        91418
#        109960
#        132347
#        146806
#        170009
#        195663
#        214984
#        235517
#        250536
#        268678
#        282155
#        301799
#        322726
#
# Disc length: 4552 seconds
#
# Revision: 0
# Processed by: cddbd v1.5.2PL0 Copyright (c) Steve Scherf et al.
# Submitted via: ExactAudioCopy v0.95b4
#
DISCID=0111c612
DTITLE=Common - Cool Common Collected
DYEAR=2006
DGENRE=Hip-Hop
TTITLE0=Intro
TTITLE1=Breaker 1/9 (Beatnuts Remix)
TTITLE2=Soul By the Pound (Thump Mix)
TTITLE3=Can-I-Bust Feat. Ynot
TTITLE4=Resurrection '95 (Extra P Remix)
TTITLE5=Resurrection '95 (Large Pro Remix)
TTITLE6=The Bitch In Yoo (Original Demo Mix - Previously Unreleased)
TTITLE7=(Lately) I've Been Thinking Feat. Sean Lett
TTITLE8=Reminding Me (Of Sef: The Roots Remix)
TTITLE9=All Night Long (Brand New Heavies Remix)
TTITLE10=1-9-9-9 Feat. Sadat X
TTITLE11=Like They Used To Say
TTITLE12=Car Horn
TTITLE13=The Light (Remix For U) Feat. Erykah Badu
TTITLE14=Tekzilla
TTITLE15=Geto Heaven (The Sound of Illadelphia Remix: Extended Version
TTITLE15=) Feat. Macy Gray
TTITLE16=Come Close (Remix: Closer) Feat. Erykah Badu, Pharrell Willia
TTITLE16=ms and Q-Tip
TTITLE17=The Corner (Remix) Feat Scarface and Mos Def 
EXTD=
EXTT0=
EXTT1=
EXTT2=
EXTT3=
EXTT4=
EXTT5=
EXTT6=
EXTT7=
EXTT8=
EXTT9=
EXTT10=
EXTT11=
EXTT12=
EXTT13=
EXTT14=
EXTT15=
EXTT16=
EXTT17=
PLAYORDER=
